<svg xmlns="http://www.w3.org/2000/svg" xmlns:xlink="http://www.w3.org/1999/xlink" xml:lang="en" height="1251.9pt" width="1541.4500000000003pt" viewBox="-87.85 -1312.2 1541.4500000000003 1251.9"><polygon points="479.7,-1071.0 492.3,-1062.0 479.7,-1053.0 " style="stroke:black;fill:none;stroke-width:2.0;stroke-dasharray:-;stroke-linecap:round;stroke-linejoin:round;" /><path d="M 72.0,-1008.0 L 122.625,-1008.0 M 129.375,-1008.0 L 180.0,-1008.0" style="stroke:black;fill:none;stroke-width:2.0;stroke-dasharray:-;stroke-linecap:round;stroke-linejoin:round;" /><path d="M 129.375,-994.5 L 129.375,-1021.5" style="stroke:black;fill:none;stroke-width:2.0;stroke-dasharray:-;stroke-linecap:round;stroke-linejoin:round;" /><path d="M 122.625,-1001.25 L 122.625,-1014.75" style="stroke:black;fill:none;stroke-width:2.0;stroke-dasharray:-;stroke-linecap:round;stroke-linejoin:round;" /><path d="M 180.0,-1008.0 L 189.0,-1008.0 L 198.0,-1008.0" style="stroke:black;fill:none;stroke-width:2.0;stroke-dasharray:-;stroke-linecap:round;stroke-linejoin:round;" /><path d="M 198.0,-1008.0 L 234.0,-1008.0 L 234.0,-1017.0 L 270.0,-1017.0 L 270.0,-999.0 L 234.0,-999.0 L 234.0,-1008.0 M 270.0,-1008.0 L 306.0,-1008.0" style="stroke:black;fill:none;stroke-width:2.0;stroke-dasharray:-;stroke-linecap:round;stroke-linejoin:round;" /><path d="M 306.0,-1008.0 L 315.0,-1008.0 L 324.0,-1008.0" style="stroke:black;fill:none;stroke-width:2.0;stroke-dasharray:-;stroke-linecap:round;stroke-linejoin:round;" /><path d="M 324.0,-1008.0 L 360.0,-1008.0 L 360.0,-1017.0 L 396.0,-1017.0 L 396.0,-999.0 L 360.0,-999.0 L 360.0,-1008.0 M 396.0,-1008.0 L 432.0,-1008.0" style="stroke:black;fill:none;stroke-width:2.0;stroke-dasharray:-;stroke-linecap:round;stroke-linejoin:round;" /><path d="M 432.0,-1008.0 L 441.0,-1008.0 L 450.0,-1008.0" style="stroke:black;fill:none;stroke-width:2.0;stroke-dasharray:-;stroke-linecap:round;stroke-linejoin:round;" /><path d="M 450.0,-1008.0 L 486.0,-1008.0 M 494.64,-1011.6 L 514.8000000000001,-1024.2 M 522.0,-1008.0 L 558.0,-1008.0" style="stroke:black;fill:none;stroke-width:2.0;stroke-dasharray:-;stroke-linecap:round;stroke-linejoin:round;" /><path d="M 450.0,-1008.0 L 450.0,-1035.0 L 450.0,-1062.0" style="stroke:black;fill:none;stroke-width:2.0;stroke-dasharray:-;stroke-linecap:round;stroke-linejoin:round;" /><path d="M 450.0,-1062.0 L 479.7,-1062.0 M 492.3,-1071.0 L 492.3,-1053.0 M 492.3,-1062.0 L 522.0,-1062.0" style="stroke:black;fill:none;stroke-width:2.0;stroke-dasharray:-;stroke-linecap:round;stroke-linejoin:round;" /><path d="M 488.7,-1075.5 L 494.12779964383077,-1084.998649376704" style="stroke:black;fill:none;stroke-width:2.0;stroke-dasharray:-;stroke-linecap:round;stroke-linejoin:round;" /><path d="M 496.7077221232863 -1089.513513715751 L 496.62833989314925 -1083.5697692342362 L 491.62725939451235 -1086.4275295191715 Z" style="stroke:black;fill:black;stroke-linecap:butt;stroke-linejoin:miter;" /><path d="M 480.59999999999997,-1075.5 L 486.02779964383075,-1084.998649376704" style="stroke:black;fill:none;stroke-width:2.0;stroke-dasharray:-;stroke-linecap:round;stroke-linejoin:round;" /><path d="M 488.6077221232863 -1089.513513715751 L 488.5283398931492 -1083.5697692342362 L 483.5272593945123 -1086.4275295191715 Z" style="stroke:black;fill:black;stroke-linecap:butt;stroke-linejoin:miter;" /><path d="M 522.0,-1062.0 L 522.0,-1035.0 L 522.0,-1008.0" style="stroke:black;fill:none;stroke-width:2.0;stroke-dasharray:-;stroke-linecap:round;stroke-linejoin:round;" /><path d="M 558.0,-1008.0 L 567.0,-1008.0 L 576.0,-1008.0" style="stroke:black;fill:none;stroke-width:2.0;stroke-dasharray:-;stroke-linecap:round;stroke-linejoin:round;" /><path d="M 576.0,-1008.0 L 612.0,-1008.0 L 612.0,-1017.0 L 648.0,-1017.0 L 648.0,-999.0 L 612.0,-999.0 L 612.0,-1008.0 M 648.0,-1008.0 L 684.0,-1008.0" style="stroke:black;fill:none;stroke-width:2.0;stroke-dasharray:-;stroke-linecap:round;stroke-linejoin:round;" /><path d="M 684.0,-1008.0 L 693.0,-1008.0 L 702.0,-1008.0" style="stroke:black;fill:none;stroke-width:2.0;stroke-dasharray:-;stroke-linecap:round;stroke-linejoin:round;" /><path d="M 702.0,-1008.0 L 702.0,-981.0 L 702.0,-954.0" style="stroke:black;fill:none;stroke-width:2.0;stroke-dasharray:-;stroke-linecap:round;stroke-linejoin:round;" /><path d="M 72.0,-1008.0 L 71.99999999999999,-981.0 L 71.99999999999999,-954.0" style="stroke:black;fill:none;stroke-width:2.0;stroke-dasharray:-;stroke-linecap:round;stroke-linejoin:round;" /><path d="M 71.99999999999999,-954.0 L 71.99999999999999,-939.6 L 62.99999999999999,-939.6 L 81.0,-939.6 M 65.69999999999999,-935.28 L 78.3,-935.28 M 70.19999999999999,-930.96 L 73.8,-930.96" style="stroke:black;fill:none;stroke-width:2.0;stroke-dasharray:-;stroke-linecap:round;stroke-linejoin:round;" /><path d="M 1188.0,-1044.0 L 1188.0,-792.0 L 1188.0,-540.0" style="stroke:black;fill:none;stroke-width:2.0;stroke-dasharray:-;stroke-linecap:round;stroke-linejoin:round;" /><path d="M 1440.0,-1044.0 L 1440.0,-792.0 L 1440.0,-540.0" style="stroke:black;fill:none;stroke-width:2.0;stroke-dasharray:-;stroke-linecap:round;stroke-linejoin:round;" /><path d="M 1440.0,-540.0 L 1440.0,-525.6 L 1431.0,-525.6 L 1449.0,-525.6 M 1433.7,-521.28 L 1446.3,-521.28 M 1438.2,-516.96 L 1441.8,-516.96" style="stroke:black;fill:none;stroke-width:2.0;stroke-dasharray:-;stroke-linecap:round;stroke-linejoin:round;" /><path d="M 1206.0,-1008.0 L 1260.0,-1008.0 L 1263.0,-1017.0 L 1269.0,-999.0 L 1275.0,-1017.0 L 1281.0,-999.0 L 1287.0,-1017.0 L 1293.0,-999.0 L 1296.0,-1008.0 L 1350.0,-1008.0" style="stroke:black;fill:none;stroke-width:2.0;stroke-dasharray:-;stroke-linecap:round;stroke-linejoin:round;" /><path d="M 1278.0,-1033.92 L 1278.0,-1026.0" style="stroke:black;fill:none;stroke-width:2.0;stroke-dasharray:-;stroke-linecap:round;stroke-linejoin:round;" /><path d="M 1278.0 -1019.0 L 1275.3 -1026.0 L 1280.7 -1026.0 Z" style="stroke:black;fill:black;stroke-linecap:butt;stroke-linejoin:miter;" /><path d="M 1278.0,-1033.92 L 1278.0,-1055.52 L 1278.0,-1077.12" style="stroke:black;fill:none;stroke-width:2.0;stroke-dasharray:-;stroke-linecap:round;stroke-linejoin:round;" /><path d="M 1278.0,-1077.12 L 1305.0,-1077.12 L 1332.0,-1077.12" style="stroke:black;fill:none;stroke-width:2.0;stroke-dasharray:-;stroke-linecap:round;stroke-linejoin:round;" /><path d="M 1206.0,-892.8000000000001 L 1260.0,-892.8000000000001 L 1263.0,-901.8000000000001 L 1269.0,-883.8000000000001 L 1275.0,-901.8000000000001 L 1281.0,-883.8000000000001 L 1287.0,-901.8000000000001 L 1293.0,-883.8000000000001 L 1296.0,-892.8000000000001 L 1350.0,-892.8000000000001" style="stroke:black;fill:none;stroke-width:2.0;stroke-dasharray:-;stroke-linecap:round;stroke-linejoin:round;" /><path d="M 1278.0,-918.72 L 1278.0,-910.8000000000001" style="stroke:black;fill:none;stroke-width:2.0;stroke-dasharray:-;stroke-linecap:round;stroke-linejoin:round;" /><path d="M 1278.0 -903.8000000000001 L 1275.3 -910.8000000000001 L 1280.7 -910.8000000000001 Z" style="stroke:black;fill:black;stroke-linecap:butt;stroke-linejoin:miter;" /><path d="M 1278.0,-918.72 L 1278.0,-940.32 L 1278.0,-961.92" style="stroke:black;fill:none;stroke-width:2.0;stroke-dasharray:-;stroke-linecap:round;stroke-linejoin:round;" /><path d="M 1278.0,-961.92 L 1305.0,-961.92 L 1332.0,-961.92" style="stroke:black;fill:none;stroke-width:2.0;stroke-dasharray:-;stroke-linecap:round;stroke-linejoin:round;" /><path d="M 1206.0,-777.6 L 1260.0,-777.6 L 1263.0,-786.6 L 1269.0,-768.6 L 1275.0,-786.6 L 1281.0,-768.6 L 1287.0,-786.6 L 1293.0,-768.6 L 1296.0,-777.6 L 1350.0,-777.6" style="stroke:black;fill:none;stroke-width:2.0;stroke-dasharray:-;stroke-linecap:round;stroke-linejoin:round;" /><path d="M 1278.0,-803.52 L 1278.0,-795.6" style="stroke:black;fill:none;stroke-width:2.0;stroke-dasharray:-;stroke-linecap:round;stroke-linejoin:round;" /><path d="M 1278.0 -788.6 L 1275.3 -795.6 L 1280.7 -795.6 Z" style="stroke:black;fill:black;stroke-linecap:butt;stroke-linejoin:miter;" /><path d="M 1278.0,-803.52 L 1278.0,-825.1200000000001 L 1278.0,-846.72" style="stroke:black;fill:none;stroke-width:2.0;stroke-dasharray:-;stroke-linecap:round;stroke-linejoin:round;" /><path d="M 1278.0,-846.72 L 1305.0,-846.72 L 1332.0,-846.72" style="stroke:black;fill:none;stroke-width:2.0;stroke-dasharray:-;stroke-linecap:round;stroke-linejoin:round;" /><path d="M 1206.0,-662.4 L 1260.0,-662.4 L 1263.0,-671.4 L 1269.0,-653.4 L 1275.0,-671.4 L 1281.0,-653.4 L 1287.0,-671.4 L 1293.0,-653.4 L 1296.0,-662.4 L 1350.0,-662.4" style="stroke:black;fill:none;stroke-width:2.0;stroke-dasharray:-;stroke-linecap:round;stroke-linejoin:round;" /><path d="M 1278.0,-688.3199999999999 L 1278.0,-680.4" style="stroke:black;fill:none;stroke-width:2.0;stroke-dasharray:-;stroke-linecap:round;stroke-linejoin:round;" /><path d="M 1278.0 -673.4 L 1275.3 -680.4 L 1280.7 -680.4 Z" style="stroke:black;fill:black;stroke-linecap:butt;stroke-linejoin:miter;" /><path d="M 1278.0,-688.3199999999999 L 1278.0,-709.92 L 1278.0,-731.5199999999999" style="stroke:black;fill:none;stroke-width:2.0;stroke-dasharray:-;stroke-linecap:round;stroke-linejoin:round;" /><path d="M 1278.0,-731.5199999999999 L 1305.0,-731.5199999999999 L 1332.0,-731.5199999999999" style="stroke:black;fill:none;stroke-width:2.0;stroke-dasharray:-;stroke-linecap:round;stroke-linejoin:round;" /><path d="M 54.0,-702.0 L 90.0,-702.0 L 90.0,-711.0 L 126.0,-711.0 L 126.0,-693.0 L 90.0,-693.0 L 90.0,-702.0 M 126.0,-702.0 L 162.0,-702.0" style="stroke:black;fill:none;stroke-width:2.0;stroke-dasharray:-;stroke-linecap:round;stroke-linejoin:round;" /><path d="M 54.0,-738.0 L 18.0,-738.0 L -18.0,-738.0" style="stroke:black;fill:none;stroke-width:2.0;stroke-dasharray:-;stroke-linecap:round;stroke-linejoin:round;" /><path d="M -18.0,-738.0 L -18.000000000000004,-714.24 M -9.000000000000004,-714.24 L -27.000000000000004,-714.24 M -9.000000000000005,-707.76 L -27.000000000000007,-707.76 M -18.000000000000004,-707.76 L -18.000000000000007,-684.0" style="stroke:black;fill:none;stroke-width:2.0;stroke-dasharray:-;stroke-linecap:round;stroke-linejoin:round;" /><path d="M -18.000000000000007,-684.0 L -18.000000000000007,-669.6 L -27.000000000000007,-669.6 L -9.000000000000007,-669.6 M -24.30000000000001,-665.28 L -11.700000000000008,-665.28 M -19.80000000000001,-660.96 L -16.20000000000001,-660.96" style="stroke:black;fill:none;stroke-width:2.0;stroke-dasharray:-;stroke-linecap:round;stroke-linejoin:round;" /><path d="M 54.0,-702.0 L 18.0,-702.0 L -18.0,-702.0" style="stroke:black;fill:none;stroke-width:2.0;stroke-dasharray:-;stroke-linecap:round;stroke-linejoin:round;" /><path d="M -18.0,-702.0 L -18.000000000000004,-678.24 M -9.000000000000004,-678.24 L -27.000000000000004,-678.24 M -9.000000000000005,-671.76 L -27.000000000000007,-671.76 M -18.000000000000004,-671.76 L -18.000000000000007,-648.0" style="stroke:black;fill:none;stroke-width:2.0;stroke-dasharray:-;stroke-linecap:round;stroke-linejoin:round;" /><path d="M -18.000000000000007,-648.0 L -18.000000000000007,-633.6 L -27.000000000000007,-633.6 L -9.000000000000007,-633.6 M -24.30000000000001,-629.28 L -11.700000000000008,-629.28 M -19.80000000000001,-624.96 L -16.20000000000001,-624.96" style="stroke:black;fill:none;stroke-width:2.0;stroke-dasharray:-;stroke-linecap:round;stroke-linejoin:round;" /><path d="M 54.0,-666.0 L 18.0,-666.0 L -18.0,-666.0" style="stroke:black;fill:none;stroke-width:2.0;stroke-dasharray:-;stroke-linecap:round;stroke-linejoin:round;" /><path d="M 198.0,-738.0 L 216.0,-738.0 L 234.0,-738.0" style="stroke:black;fill:none;stroke-width:2.0;stroke-dasharray:-;stroke-linecap:round;stroke-linejoin:round;" /><path d="M 198.0,-666.0 L 216.0,-666.0 L 234.0,-666.0" style="stroke:black;fill:none;stroke-width:2.0;stroke-dasharray:-;stroke-linecap:round;stroke-linejoin:round;" /><path d="M 234.0,-666.0 L 234.0,-651.6 L 225.0,-651.6 L 243.0,-651.6 M 227.70000000000002,-647.28 L 240.29999999999998,-647.28 M 232.20000000000002,-642.96 L 235.79999999999998,-642.96" style="stroke:black;fill:none;stroke-width:2.0;stroke-dasharray:-;stroke-linecap:round;stroke-linejoin:round;" /><path d="M 36.0,-468.0 L 72.0,-468.0 M 80.64000000000001,-471.59999999999997 L 100.8,-484.2 M 108.0,-468.0 L 144.0,-468.0" style="stroke:black;fill:none;stroke-width:2.0;stroke-dasharray:-;stroke-linecap:round;stroke-linejoin:round;" /><path d="M 144.0,-468.0 L 144.0,-453.59999999999997 L 135.0,-453.59999999999997 L 153.0,-453.59999999999997 M 137.70000000000002,-449.28000000000003 L 150.29999999999998,-449.28000000000003 M 142.20000000000002,-444.96 L 145.79999999999998,-444.96" style="stroke:black;fill:none;stroke-width:2.0;stroke-dasharray:-;stroke-linecap:round;stroke-linejoin:round;" /><path d="M 36.0,-360.0 L 86.76,-360.0 M 86.76,-369.0 L 86.76,-351.0 M 93.24,-369.0 L 93.24,-351.0 M 93.24,-360.0 L 144.0,-360.0" style="stroke:black;fill:none;stroke-width:2.0;stroke-dasharray:-;stroke-linecap:round;stroke-linejoin:round;" /><path d="M 144.0,-360.0 L 144.0,-345.59999999999997 L 135.0,-345.59999999999997 L 153.0,-345.59999999999997 M 137.70000000000002,-341.28000000000003 L 150.29999999999998,-341.28000000000003 M 142.20000000000002,-336.96 L 145.79999999999998,-336.96" style="stroke:black;fill:none;stroke-width:2.0;stroke-dasharray:-;stroke-linecap:round;stroke-linejoin:round;" /><path d="M 576.0,-720.0 L 612.0,-720.0 L 612.0,-729.0 L 648.0,-729.0 L 648.0,-711.0 L 612.0,-711.0 L 612.0,-720.0 M 648.0,-720.0 L 684.0,-720.0" style="stroke:black;fill:none;stroke-width:2.0;stroke-dasharray:-;stroke-linecap:round;stroke-linejoin:round;" /><path d="M 576.0,-745.1999999999999 L 540.0,-745.1999999999999 L 504.0,-745.1999999999999" style="stroke:black;fill:none;stroke-width:2.0;stroke-dasharray:-;stroke-linecap:round;stroke-linejoin:round;" /><path d="M 576.0,-694.8000000000001 L 540.0,-694.8000000000001 L 504.0,-694.8000000000001" style="stroke:black;fill:none;stroke-width:2.0;stroke-dasharray:-;stroke-linecap:round;stroke-linejoin:round;" /><path d="M 756.0,-745.1999999999999 L 774.0,-745.1999999999999 L 792.0,-745.1999999999999" style="stroke:black;fill:none;stroke-width:2.0;stroke-dasharray:-;stroke-linecap:round;stroke-linejoin:round;" /><path d="M 756.0,-694.8000000000001 L 774.0,-694.8000000000001 L 792.0,-694.8000000000001" style="stroke:black;fill:none;stroke-width:2.0;stroke-dasharray:-;stroke-linecap:round;stroke-linejoin:round;" /><path d="M 792.0,-694.8000000000001 L 792.0,-680.4000000000001 L 783.0,-680.4000000000001 L 801.0,-680.4000000000001 M 785.6999999999999,-676.08 L 798.3000000000001,-676.08 M 790.1999999999999,-671.76 L 793.8000000000001,-671.76" style="stroke:black;fill:none;stroke-width:2.0;stroke-dasharray:-;stroke-linecap:round;stroke-linejoin:round;" /><path d="M 666.0,-774.0 L 666.0,-801.0 L 666.0,-828.0" style="stroke:black;fill:none;stroke-width:2.0;stroke-dasharray:-;stroke-linecap:round;stroke-linejoin:round;" /><path d="M 666.0,-828.0 L 666.0,-849.6 L 652.32,-871.1999999999999 L 679.68,-871.1999999999999 L 666.0,-849.6" style="stroke:black;fill:none;stroke-width:2.0;stroke-dasharray:-;stroke-linecap:round;stroke-linejoin:round;" /><path d="M 576.0,-468.0 L 576.0,-504.0 L 567.0,-504.0 L 567.0,-540.0 L 585.0,-540.0 L 585.0,-504.0 L 576.0,-504.0 M 576.0,-540.0 L 576.0,-576.0" style="stroke:black;fill:none;stroke-width:2.0;stroke-dasharray:-;stroke-linecap:round;stroke-linejoin:round;" /><path d="M 756.0,-486.0 L 783.0,-486.0 L 810.0,-486.0" style="stroke:black;fill:none;stroke-width:2.0;stroke-dasharray:-;stroke-linecap:round;stroke-linejoin:round;" /><path d="M 756.0,-450.0 L 783.0,-450.0 L 810.0,-450.0" style="stroke:black;fill:none;stroke-width:2.0;stroke-dasharray:-;stroke-linecap:round;stroke-linejoin:round;" /><path d="M 594.0,-306.0 L 630.0,-306.0 L 630.0,-315.0 L 666.0,-315.0 L 666.0,-297.0 L 630.0,-297.0 L 630.0,-306.0 M 666.0,-306.0 L 702.0,-306.0" style="stroke:black;fill:none;stroke-width:2.0;stroke-dasharray:-;stroke-linecap:round;stroke-linejoin:round;" /><text x="723.6" y="-1315.6000000000001" dominant-baseline="central" fill="black" font-size="16" font-family="sans" text-anchor="middle"><tspan x="723.6" dy="16">ELRS Surface Radio — Schematic</tspan></text><text x="723.6" y="-1254.6000000000001" dominant-baseline="central" fill="black" font-size="9" font-family="sans" text-anchor="middle"><tspan x="723.6" dy="9">RP2350-LCD-1.47-A  |  v0.2  |  2026-03-17  |  Lazy Build (no ADC RC filters)</tspan></text><text x="39.6" y="-1132.6000000000001" dominant-baseline="central" fill="black" font-size="13" font-family="sans" text-anchor="middle"><tspan x="39.6" dy="13">POWER CHAIN</tspan></text><text x="126.0" y="-1041.1000000000001" dominant-baseline="ideographic" fill="black" font-size="8" font-family="sans" text-anchor="middle"><tspan x="126.0" dy="8">18650</tspan><tspan x="126.0" dy="8">3.7V</tspan></text><text x="252.0" y="-1034.6" dominant-baseline="ideographic" fill="black" font-size="7" font-family="sans" text-anchor="middle"><tspan x="252.0" dy="7">INA219 #1</tspan><tspan x="252.0" dy="7">0x40 Batt</tspan></text><text x="378.0" y="-1034.6" dominant-baseline="ideographic" fill="black" font-size="7" font-family="sans" text-anchor="middle"><tspan x="378.0" dy="7">Batt Shield V3</tspan><tspan x="378.0" dy="7">TP4056+5V Boost</tspan></text><circle cx="490.32000000000005" cy="-1008.0" r="4.32" style="stroke:black;fill:white;stroke-width:2.0;stroke-dasharray:-;" /><circle cx="517.68" cy="-1008.0" r="4.32" style="stroke:black;fill:white;stroke-width:2.0;stroke-dasharray:-;" /><text x="504.0" y="-1035.8" dominant-baseline="ideographic" fill="black" font-size="8" font-family="sans" text-anchor="middle"><tspan x="504.0" dy="8">SW1 ON/OFF</tspan></text><text x="486.0" y="-1107.6100000000001" dominant-baseline="ideographic" fill="black" font-size="7" font-family="sans" text-anchor="middle"><tspan x="486.0" dy="7">5V LED</tspan></text><text x="630.0" y="-1034.6" dominant-baseline="ideographic" fill="black" font-size="7" font-family="sans" text-anchor="middle"><tspan x="630.0" dy="7">INA219 #2</tspan><tspan x="630.0" dy="7">0x41 5V</tspan></text><text x="705.6" y="-1021.6" dominant-baseline="central" fill="black" font-size="10" font-family="sans" text-anchor="start"><tspan x="705.6" dy="10">VSYS</tspan></text><text x="705.6" y="-958.4" dominant-baseline="central" fill="black" font-size="8" font-family="sans" text-anchor="start"><tspan x="705.6" dy="8">SpeedyBee 5V</tspan></text><text x="219.6" y="-1083.3999999999999" dominant-baseline="central" fill="black" font-size="7" font-family="sans" text-anchor="middle"><tspan x="219.6" dy="7">Both INA219: I2C0 bus GP8(SDA) / GP9(SCL)</tspan></text><text x="1191.6000000000001" y="-1125.3999999999999" dominant-baseline="central" fill="black" font-size="13" font-family="sans" text-anchor="middle"><tspan x="1191.6000000000001" dy="13">ADC INPUTS (direct wire)</tspan></text><text x="1180.8000000000002" y="-1049.3999999999999" dominant-baseline="hanging" fill="black" font-size="9" font-family="sans" text-anchor="middle"><tspan x="1180.8000000000002" dy="9">+3V3</tspan></text><text x="1278.0" y="-1002.4" dominant-baseline="hanging" fill="black" font-size="7" font-family="sans" text-anchor="middle"><tspan x="1278.0" dy="7">RV1 Throttle</tspan><tspan x="1278.0" dy="7">(spring)</tspan></text><text x="1335.6000000000001" y="-1089.72" dominant-baseline="central" fill="black" font-size="9" font-family="sans" text-anchor="start"><tspan x="1335.6000000000001" dy="9">→ GP26</tspan></text><text x="1278.0" y="-887.1999999999999" dominant-baseline="hanging" fill="black" font-size="7" font-family="sans" text-anchor="middle"><tspan x="1278.0" dy="7">RV2 Steering</tspan><tspan x="1278.0" dy="7">(spring)</tspan></text><text x="1335.6000000000001" y="-974.52" dominant-baseline="central" fill="black" font-size="9" font-family="sans" text-anchor="start"><tspan x="1335.6000000000001" dy="9">→ GP27</tspan></text><text x="1278.0" y="-772.0" dominant-baseline="hanging" fill="black" font-size="7" font-family="sans" text-anchor="middle"><tspan x="1278.0" dy="7">RV3 Steer Trim</tspan></text><text x="1335.6000000000001" y="-859.32" dominant-baseline="central" fill="black" font-size="9" font-family="sans" text-anchor="start"><tspan x="1335.6000000000001" dy="9">→ GP28</tspan></text><text x="1278.0" y="-656.8" dominant-baseline="hanging" fill="black" font-size="7" font-family="sans" text-anchor="middle"><tspan x="1278.0" dy="7">RV4 Throt Trim</tspan></text><text x="1335.6000000000001" y="-744.1199999999999" dominant-baseline="central" fill="black" font-size="9" font-family="sans" text-anchor="start"><tspan x="1335.6000000000001" dy="9">→ GP29</tspan></text><text x="39.6" y="-806.6" dominant-baseline="central" fill="black" font-size="11" font-family="sans" text-anchor="middle"><tspan x="39.6" dy="11">ROTARY ENCODER (KY-040)</tspan></text><text x="108.0" y="-732.6" dominant-baseline="ideographic" fill="black" font-size="9" font-family="sans" text-anchor="middle"><tspan x="108.0" dy="9">KY-040</tspan><tspan x="108.0" dy="9">Encoder</tspan></text><text x="-21.599999999999998" y="-743.4" dominant-baseline="central" fill="black" font-size="9" font-family="sans" text-anchor="end"><tspan x="-21.599999999999998" dy="9">GP2 ←</tspan></text><text x="-18.0" y="-748.6" dominant-baseline="ideographic" fill="black" font-size="7" font-family="sans" text-anchor="middle"><tspan x="-18.0" dy="7">C1 50nF</tspan></text><text x="-21.599999999999998" y="-707.4" dominant-baseline="central" fill="black" font-size="9" font-family="sans" text-anchor="end"><tspan x="-21.599999999999998" dy="9">GP3 ←</tspan></text><text x="-18.0" y="-712.6" dominant-baseline="ideographic" fill="black" font-size="7" font-family="sans" text-anchor="middle"><tspan x="-18.0" dy="7">C2 50nF</tspan></text><text x="-21.599999999999998" y="-671.4" dominant-baseline="central" fill="black" font-size="9" font-family="sans" text-anchor="end"><tspan x="-21.599999999999998" dy="9">GP4 ←</tspan></text><text x="237.6" y="-750.6" dominant-baseline="central" fill="black" font-size="9" font-family="sans" text-anchor="start"><tspan x="237.6" dy="9">+3V3</tspan></text><text x="39.6" y="-518.5999999999999" dominant-baseline="central" fill="black" font-size="11" font-family="sans" text-anchor="middle"><tspan x="39.6" dy="11">CH3 SWITCH</tspan></text><text x="21.599999999999998" y="-480.59999999999997" dominant-baseline="central" fill="black" font-size="9" font-family="sans" text-anchor="end"><tspan x="21.599999999999998" dy="9">GP5 →</tspan></text><circle cx="76.32000000000001" cy="-468.0" r="4.32" style="stroke:black;fill:white;stroke-width:2.0;stroke-dasharray:-;" /><circle cx="103.67999999999999" cy="-468.0" r="4.32" style="stroke:black;fill:white;stroke-width:2.0;stroke-dasharray:-;" /><text x="90.0" y="-495.8" dominant-baseline="ideographic" fill="black" font-size="8" font-family="sans" text-anchor="middle"><tspan x="90.0" dy="8">SW2 Toggle</tspan></text><text x="39.6" y="-410.59999999999997" dominant-baseline="central" fill="black" font-size="11" font-family="sans" text-anchor="middle"><tspan x="39.6" dy="11">3V3 DECOUPLING</tspan></text><text x="21.599999999999998" y="-372.59999999999997" dominant-baseline="central" fill="black" font-size="9" font-family="sans" text-anchor="end"><tspan x="21.599999999999998" dy="9">+3V3 →</tspan></text><text x="90.0" y="-380.59999999999997" dominant-baseline="ideographic" fill="black" font-size="8" font-family="sans" text-anchor="middle"><tspan x="90.0" dy="8">C3 100nF</tspan></text><text x="579.6" y="-844.6" dominant-baseline="central" fill="black" font-size="13" font-family="sans" text-anchor="middle"><tspan x="579.6" dy="13">RF MODULE</tspan></text><text x="630.0" y="-756.6" dominant-baseline="ideographic" fill="black" font-size="8" font-family="sans" text-anchor="middle"><tspan x="630.0" dy="8">SpeedyBee Nano</tspan><tspan x="630.0" dy="8">2.4GHz ELRS TX</tspan><tspan x="630.0" dy="8">420kbaud CRSF</tspan></text><text x="500.40000000000003" y="-749.5999999999999" dominant-baseline="central" fill="black" font-size="8" font-family="sans" text-anchor="end"><tspan x="500.40000000000003" dy="8">GP0 TX →</tspan></text><text x="500.40000000000003" y="-699.1999999999999" dominant-baseline="central" fill="black" font-size="8" font-family="sans" text-anchor="end"><tspan x="500.40000000000003" dy="8">GP1 RX ←</tspan></text><text x="795.6" y="-757.8000000000001" dominant-baseline="central" fill="black" font-size="9" font-family="sans" text-anchor="start"><tspan x="795.6" dy="9">5V</tspan></text><text x="666.0" y="-882.8000000000001" dominant-baseline="ideographic" fill="black" font-size="8" font-family="sans" text-anchor="middle"><tspan x="666.0" dy="8">2.4GHz</tspan></text><text x="572.4" y="-574.6" dominant-baseline="central" fill="black" font-size="13" font-family="sans" text-anchor="middle"><tspan x="572.4" dy="13">VEHICLE SIDE</tspan></text><text x="563.4" y="-534.0" dominant-baseline="central" fill="black" font-size="8" font-family="sans" text-anchor="end"><tspan x="563.4" dy="8">RadioMaster ER5A V2</tspan><tspan x="563.4" dy="8">5ch PWM ELRS RX</tspan></text><text x="813.6" y="-497.59999999999997" dominant-baseline="central" fill="black" font-size="8" font-family="sans" text-anchor="start"><tspan x="813.6" dy="8">CH1→Servo</tspan></text><text x="813.6" y="-461.59999999999997" dominant-baseline="central" fill="black" font-size="8" font-family="sans" text-anchor="start"><tspan x="813.6" dy="8">CH2→ESC</tspan></text><text x="669.6" y="-641.6" dominant-baseline="central" fill="black" font-size="8" font-family="sans" text-anchor="middle"><tspan x="669.6" dy="8">~ ~ ~ 2.4GHz ~ ~ ~</tspan></text><text x="579.6" y="-392.59999999999997" dominant-baseline="central" fill="black" font-size="11" font-family="sans" text-anchor="middle"><tspan x="579.6" dy="11">INTERNAL (no wiring needed)</tspan></text><text x="648.0" y="-332.59999999999997" dominant-baseline="ideographic" fill="black" font-size="7" font-family="sans" text-anchor="middle"><tspan x="648.0" dy="7">ST7789 LCD 172x320 (GP16-21 SPI0)</tspan><tspan x="648.0" dy="7">WS2812 RGB LED (GP22 PIO)</tspan></text><text x="39.6" y="-228.6" dominant-baseline="central" fill="black" font-size="9" font-family="sans" text-anchor="middle"><tspan x="39.6" dy="9">Notes:</tspan></text><text x="39.6" y="-190.6" dominant-baseline="central" fill="black" font-size="7" font-family="sans" text-anchor="middle"><tspan x="39.6" dy="7">- CRSF UART0 @ 420kbaud (8N1, non-inverted) on GP0/GP1</tspan></text><text x="39.6" y="-161.79999999999998" dominant-baseline="central" fill="black" font-size="7" font-family="sans" text-anchor="middle"><tspan x="39.6" dy="7">- I2C0 @ 100kHz on GP8/GP9 (shared by both INA219, 50ms timeout)</tspan></text><text x="39.6" y="-133.0" dominant-baseline="central" fill="black" font-size="7" font-family="sans" text-anchor="middle"><tspan x="39.6" dy="7">- ADC: 12-bit, 16x oversample, EMA smooth, 8-count deadband at center</tspan></text><text x="39.6" y="-104.2" dominant-baseline="central" fill="black" font-size="7" font-family="sans" text-anchor="middle"><tspan x="39.6" dy="7">- Lazy build: no RC filters on ADC inputs. Upgrade: add 1k + 100nF per pot</tspan></text><text x="39.6" y="-75.4" dominant-baseline="central" fill="black" font-size="7" font-family="sans" text-anchor="middle"><tspan x="39.6" dy="7">- Battery Shield V3 switch only controls USB-A port. External SW1 for power off</tspan></text><circle cx="450.0" cy="-1008.0" r="2.6999999999999997" style="stroke:black;fill:black;stroke-width:2.0;stroke-dasharray:-;" /><circle cx="702.0" cy="-1008.0" r="2.6999999999999997" style="stroke:black;fill:black;stroke-width:2.0;stroke-dasharray:-;" /><circle cx="1188.0" cy="-1008.0" r="2.6999999999999997" style="stroke:black;fill:black;stroke-width:2.0;stroke-dasharray:-;" /><circle cx="1440.0" cy="-1008.0" r="2.6999999999999997" style="stroke:black;fill:black;stroke-width:2.0;stroke-dasharray:-;" /><circle cx="1188.0" cy="-892.8000000000001" r="2.6999999999999997" style="stroke:black;fill:black;stroke-width:2.0;stroke-dasharray:-;" /><circle cx="1440.0" cy="-892.8000000000001" r="2.6999999999999997" style="stroke:black;fill:black;stroke-width:2.0;stroke-dasharray:-;" /><circle cx="1188.0" cy="-777.6" r="2.6999999999999997" style="stroke:black;fill:black;stroke-width:2.0;stroke-dasharray:-;" /><circle cx="1440.0" cy="-777.6" r="2.6999999999999997" style="stroke:black;fill:black;stroke-width:2.0;stroke-dasharray:-;" /><circle cx="1188.0" cy="-662.4" r="2.6999999999999997" style="stroke:black;fill:black;stroke-width:2.0;stroke-dasharray:-;" /><circle cx="1440.0" cy="-662.4" r="2.6999999999999997" style="stroke:black;fill:black;stroke-width:2.0;stroke-dasharray:-;" /><circle cx="-18.0" cy="-738.0" r="2.6999999999999997" style="stroke:black;fill:black;stroke-width:2.0;stroke-dasharray:-;" /><circle cx="-18.0" cy="-702.0" r="2.6999999999999997" style="stroke:black;fill:black;stroke-width:2.0;stroke-dasharray:-;" /></svg>